<svg width="421" height="163" viewBox="0 0 421 163" fill="none" xmlns="http://www.w3.org/2000/svg">
<path fill-rule="evenodd" clip-rule="evenodd" d="M124.677 133.8H106.477V160H73.8773V133.8H0.277344V104.091L64.5494 10H106.477V103.4H124.677V133.8ZM65.0773 11H105.477V104.4H123.677V132.8H105.477V159H74.8773V132.8H1.27734V104.4L65.0773 11ZM35.6773 104.4H74.8773V46.8L35.6773 104.4ZM37.5675 103.4H73.8773V50.0468L37.5675 103.4Z" fill="black"/>
<path d="M146.423 85.4002C146.423 131.2 170.423 161.6 211.023 161.6C251.623 161.6 275.623 131.2 275.623 85.4002C275.623 39.6002 249.623 8.2002 211.023 8.2002C172.423 8.2002 146.423 39.6002 146.423 85.4002ZM178.423 85.4002C178.423 52.6002 190.423 36.6002 211.023 36.6002C231.623 36.6002 243.623 52.6002 243.623 85.4002C243.623 117.2 231.623 133.2 211.023 133.2C190.423 133.2 178.423 117.2 178.423 85.4002Z" fill="#FFD05C"/>
<rect x="173" y="31" width="84" height="107" fill="#FFD05C"/>
<path d="M159.795 63.9149L161.853 93.584L148.991 87.5813L145.732 100.615C145.732 100.615 173.343 116.051 176.087 115.536C178.831 115.021 171.971 54.9968 171.971 54.9968L159.795 63.9149" fill="#FE7D55"/>
<path d="M159.797 63.9148L159.52 63.9337L161.546 93.1337L149.109 87.3301C149.034 87.2946 148.948 87.2951 148.873 87.3312C148.798 87.3667 148.743 87.4332 148.723 87.5142L145.465 100.548C145.434 100.67 145.489 100.796 145.598 100.857C145.6 100.857 152.279 104.592 159.398 108.327C162.957 110.195 166.626 112.063 169.627 113.466C171.128 114.168 172.462 114.754 173.536 115.166C174.073 115.372 174.546 115.535 174.945 115.647C175.346 115.76 175.668 115.825 175.934 115.826C176.006 115.826 176.073 115.821 176.14 115.808C176.282 115.782 176.39 115.695 176.465 115.6C176.595 115.433 176.67 115.222 176.738 114.95C176.935 114.139 177.012 112.746 177.014 110.873C177.014 103.751 175.822 89.7853 174.63 77.5858C173.439 65.3881 172.248 54.9662 172.248 54.9651C172.237 54.867 172.175 54.7822 172.084 54.7428C171.993 54.7029 171.889 54.7145 171.809 54.7733L159.633 63.6914C159.556 63.7474 159.513 63.8389 159.52 63.9337L159.797 63.9148L159.96 64.1383L172.136 55.2202L171.973 54.9967L171.697 55.0283C171.697 55.03 171.772 55.6787 171.902 56.8464C172.813 65.0121 176.461 98.491 176.46 110.873C176.46 112.286 176.411 113.422 176.309 114.201C176.259 114.589 176.193 114.888 176.123 115.073C176.089 115.165 176.053 115.228 176.032 115.254L176.015 115.272L176.048 115.321L176.038 115.264L176.015 115.272L176.048 115.321L176.038 115.264L175.934 115.271C175.764 115.273 175.469 115.22 175.096 115.114C173.683 114.716 171.125 113.59 168.115 112.132C163.595 109.944 158.032 107.003 153.601 104.611C151.385 103.414 149.451 102.355 148.073 101.594C147.383 101.214 146.832 100.909 146.453 100.698C146.075 100.488 145.87 100.373 145.869 100.373L145.734 100.615L146.003 100.682L149.18 87.9749L161.737 93.8351C161.826 93.8767 161.93 93.8684 162.011 93.8124C162.092 93.7569 162.138 93.6627 162.131 93.5651L160.073 63.8954L159.797 63.9148L159.96 64.1383L159.797 63.9148" fill="black"/>
<path d="M178.335 135.49C178.335 135.49 193.147 130.399 198.933 125.539C204.719 120.678 174.401 61.8949 174.401 61.8949C174.401 61.8949 174.864 115.819 178.335 135.49" fill="#FE7D55"/>
<path d="M178.335 135.49L178.425 135.752C178.429 135.751 182.136 134.477 186.572 132.592C191.01 130.705 196.168 128.219 199.111 125.751C199.416 125.494 199.623 125.127 199.754 124.685C199.885 124.242 199.943 123.717 199.944 123.116C199.942 121.54 199.542 119.423 198.848 116.899C196.418 108.077 190.371 94.3075 184.928 82.7268C179.485 71.149 174.648 61.7701 174.647 61.7679C174.588 61.6542 174.458 61.5949 174.334 61.6259C174.209 61.6564 174.122 61.7696 174.123 61.8976C174.123 61.8987 174.239 75.3818 174.789 91.3256C175.339 107.272 176.321 125.668 178.062 135.538C178.076 135.618 178.124 135.688 178.194 135.729C178.264 135.77 178.348 135.779 178.425 135.752L178.335 135.49L178.608 135.442C176.877 125.641 175.892 107.239 175.343 91.3061C175.068 83.3384 174.901 75.9845 174.804 70.6228C174.755 67.9419 174.723 65.7595 174.704 64.2469C174.685 62.7343 174.677 61.8949 174.677 61.8926L174.4 61.8949L174.154 62.0224C174.154 62.0224 174.252 62.2131 174.437 62.5746C175.824 65.2854 182.068 77.583 187.964 90.6308C190.911 97.1547 193.771 103.866 195.893 109.657C198.015 115.443 199.393 120.329 199.389 123.116C199.389 123.681 199.333 124.157 199.222 124.527C199.112 124.899 198.952 125.16 198.754 125.326C195.911 127.718 190.77 130.208 186.355 132.082C184.147 133.02 182.118 133.807 180.642 134.359C179.904 134.635 179.305 134.853 178.889 135.001C178.474 135.149 178.245 135.228 178.244 135.228L178.335 135.49L178.608 135.442L178.335 135.49" fill="black"/>
<path d="M240.337 116.499L238.624 116.754C238.638 116.858 238.646 116.948 238.643 117.007C238.513 119.209 226.611 125.068 218.207 128.239C216.369 129.663 213.911 130.38 210.818 130.38L210.736 130.377C204.249 131.001 191.789 128.146 188.972 126.219L185.934 157.291L185.935 157.292C186.424 157.532 186.922 157.762 187.426 157.988C194.009 160.905 201.802 162.371 210.818 162.371C221.216 162.371 230.042 160.317 237.295 156.212C237.348 156.182 237.401 156.152 237.454 156.122C237.912 155.861 238.364 155.592 238.809 155.314C239.346 154.979 239.87 154.631 240.388 154.278C240.546 154.17 240.701 154.059 240.857 153.949C241.22 153.694 241.579 153.436 241.932 153.173C242.1 153.048 242.267 152.921 242.432 152.793C242.786 152.522 243.133 152.246 243.477 151.965C243.616 151.851 243.758 151.739 243.895 151.623C244.366 151.228 244.83 150.827 245.283 150.414L245.286 150.411C243.348 136.667 240.337 116.499 240.337 116.499Z" fill="black"/>
<path d="M173.928 80.4158C173.928 80.4158 187.65 113.958 187.819 115.144C187.989 116.33 186.464 123.953 188.667 125.986C190.869 128.019 205.607 131.407 211.875 130.221C218.143 129.035 238.472 119.887 238.642 117.007C238.811 114.128 218.482 57.8844 215.941 51.1082C213.4 44.332 203.066 41.9606 196.12 42.6381C189.175 43.3157 172.404 47.7204 169.354 51.9554C166.305 56.1905 173.928 80.4158 173.928 80.4158" fill="white"/>
<path d="M173.93 80.4158L173.673 80.5206C173.674 80.5223 173.888 81.0446 174.263 81.9639C175.578 85.182 178.866 93.2435 181.844 100.63C183.333 104.323 184.744 107.847 185.792 110.512C186.316 111.844 186.749 112.962 187.055 113.777C187.208 114.185 187.33 114.517 187.415 114.761C187.457 114.882 187.49 114.982 187.512 115.056C187.535 115.129 187.547 115.183 187.547 115.183C187.553 115.227 187.558 115.301 187.558 115.395C187.558 115.843 187.466 116.71 187.373 117.75C187.28 118.793 187.187 120.018 187.186 121.221C187.187 122.226 187.251 123.215 187.44 124.08C187.631 124.942 187.943 125.69 188.48 126.189C188.753 126.44 189.15 126.679 189.661 126.928C191.446 127.792 194.642 128.738 198.185 129.478C201.728 130.217 205.606 130.743 208.734 130.744C209.926 130.744 211.009 130.667 211.928 130.494C213.529 130.19 215.98 129.392 218.779 128.32C222.975 126.711 227.941 124.485 231.883 122.386C233.854 121.336 235.569 120.318 236.81 119.419C237.431 118.969 237.934 118.549 238.295 118.159C238.653 117.768 238.89 117.413 238.92 117.024L238.921 116.969C238.919 116.701 238.835 116.294 238.686 115.691C238.124 113.449 236.59 108.698 234.563 102.711C228.483 84.7562 217.984 55.7613 216.202 51.0112C215.031 47.8923 212.279 45.7049 208.999 44.2977C205.716 42.8893 201.888 42.2506 198.489 42.2494C197.661 42.2494 196.858 42.2877 196.095 42.362C192.59 42.7047 186.656 43.9777 181.195 45.6982C178.464 46.5588 175.855 47.5308 173.727 48.5588C171.6 49.5901 169.952 50.6613 169.131 51.7935C168.56 52.5997 168.364 53.8977 168.359 55.534C168.361 59.6182 169.689 65.8405 171.015 71.0652C172.34 76.2861 173.664 80.4957 173.666 80.499L173.673 80.5206L173.93 80.4158L174.194 80.3326C174.194 80.3315 174.112 80.0709 173.968 79.5963C173.462 77.9346 172.197 73.6657 171.059 68.9361C169.921 64.2087 168.912 59.0111 168.913 55.534C168.909 53.9471 169.136 52.7228 169.581 52.1173C170.284 51.132 171.877 50.0647 173.968 49.0578C180.244 46.0226 190.987 43.4149 196.149 42.9137C196.893 42.8416 197.678 42.8039 198.489 42.8039C201.819 42.8034 205.586 43.4349 208.781 44.8072C211.979 46.1795 214.589 48.2832 215.683 51.2058C216.947 54.5753 222.623 70.2152 227.981 85.421C230.66 93.0239 233.26 100.52 235.19 106.319C236.155 109.219 236.952 111.695 237.507 113.545C237.784 114.471 238.001 115.24 238.148 115.825C238.295 116.406 238.369 116.822 238.367 116.969L238.366 116.991C238.362 117.091 238.301 117.256 238.157 117.457C237.891 117.836 237.36 118.324 236.633 118.862C234.082 120.752 229.141 123.295 224.213 125.471C219.286 127.651 214.346 129.474 211.825 129.949C210.955 130.113 209.901 130.189 208.734 130.189C205.228 130.19 200.695 129.509 196.817 128.61C194.877 128.16 193.1 127.657 191.697 127.16C190.996 126.911 190.388 126.665 189.903 126.429C189.419 126.195 189.057 125.968 188.856 125.782C188.448 125.408 188.157 124.766 187.982 123.961C187.806 123.158 187.741 122.201 187.741 121.221C187.741 120.046 187.833 118.836 187.925 117.799C188.018 116.76 188.111 115.904 188.112 115.395C188.112 115.285 188.108 115.191 188.096 115.105C188.085 115.031 188.063 114.962 188.031 114.857C187.783 114.071 186.801 111.542 185.458 108.158C181.43 98.0174 174.187 80.311 174.187 80.3104L173.93 80.4158L174.194 80.3326L173.93 80.4158" fill="black"/>
<path d="M175.117 49.2447C175.117 49.2447 173.423 64.6612 174.439 67.8799C175.456 71.098 180.079 79.9529 180.079 79.9529C180.079 79.9529 187.822 70.2513 189.347 69.235C190.872 68.2186 204.932 77.1966 204.932 77.1966C204.932 77.1966 205.44 67.5405 203.408 59.5789C201.375 51.6167 197.817 42.977 196.631 41.4522C195.445 39.928 195.445 45.5181 191.041 49.2447C186.636 52.9718 175.117 49.2447 175.117 49.2447" fill="white"/>
<path d="M175.114 49.2447L174.839 49.2147C174.838 49.2197 173.835 58.3396 173.835 64.0423C173.837 65.7584 173.919 67.1524 174.172 67.963C174.693 69.6098 176.103 72.6228 177.389 75.2454C178.673 77.8647 179.831 80.0798 179.831 80.0815C179.874 80.1641 179.957 80.2201 180.05 80.229C180.143 80.2378 180.235 80.199 180.294 80.1259C180.295 80.1242 180.777 79.5204 181.526 78.5955C182.65 77.2088 184.371 75.104 185.952 73.2526C186.743 72.3278 187.499 71.4656 188.126 70.7897C188.439 70.4526 188.72 70.1615 188.955 69.9336C189.189 69.7068 189.383 69.5416 189.498 69.4656C189.508 69.4562 189.574 69.4307 189.693 69.4318C189.956 69.429 190.429 69.5443 191.01 69.76C193.06 70.5136 196.519 72.4365 199.445 74.1642C200.909 75.0292 202.243 75.8459 203.211 76.4464C203.696 76.7464 204.088 76.9925 204.359 77.1639C204.63 77.3346 204.78 77.43 204.781 77.4306C204.864 77.4838 204.969 77.4888 205.056 77.4433C205.144 77.3979 205.201 77.3103 205.206 77.2116C205.206 77.2077 205.264 76.1303 205.264 74.3987C205.262 70.9355 205.038 64.8591 203.673 59.5101C202.654 55.5146 201.253 51.3566 199.958 48.0015C199.31 46.3243 198.689 44.8477 198.154 43.6916C197.615 42.5328 197.174 41.705 196.847 41.2819C196.767 41.1793 196.686 41.0945 196.591 41.0291C196.497 40.9637 196.381 40.9171 196.256 40.9176C196.138 40.9171 196.026 40.9609 195.94 41.0202C195.779 41.1339 195.673 41.2908 195.563 41.4837C195.374 41.8214 195.19 42.2861 194.96 42.8472C194.273 44.5278 193.199 47.054 190.86 49.0334C189.481 50.2061 187.282 50.627 184.952 50.6242C182.625 50.6242 180.181 50.2139 178.324 49.8025C177.395 49.5967 176.612 49.391 176.063 49.2369C175.788 49.1598 175.571 49.0955 175.424 49.0506C175.276 49.0062 175.2 48.9813 175.2 48.9813C175.12 48.9552 175.033 48.9669 174.963 49.0123C174.894 49.0572 174.848 49.1321 174.839 49.2147L175.114 49.2447L175.029 49.5086C175.043 49.5114 180.173 51.1764 184.952 51.1787C187.341 51.1759 189.66 50.7683 191.218 49.4565C193.212 47.7687 194.318 45.7132 195.035 44.0959C195.392 43.2874 195.654 42.586 195.873 42.1037C195.982 41.8636 196.082 41.6778 196.162 41.573C196.202 41.5203 196.236 41.4893 196.253 41.4782L196.266 41.471L196.256 41.4444V41.4721L196.266 41.471L196.256 41.4444V41.4721V41.4582L196.252 41.4721H196.256V41.4582L196.252 41.4721C196.259 41.4721 196.325 41.5109 196.41 41.6224C196.676 41.9617 197.124 42.7856 197.65 43.9245C199.238 47.3506 201.618 53.6971 203.136 59.6471C204.482 64.9145 204.71 70.961 204.709 74.3987C204.709 75.2587 204.695 75.9551 204.681 76.437C204.667 76.9182 204.653 77.1816 204.653 77.1822L204.93 77.1966L205.079 76.9632C205.077 76.962 201.926 74.9499 198.441 72.9355C196.698 71.9286 194.872 70.9205 193.309 70.162C192.528 69.7822 191.813 69.4651 191.202 69.2399C190.589 69.0159 190.09 68.8795 189.693 68.8773C189.513 68.8784 189.343 68.9045 189.191 69.0043C188.964 69.1562 188.675 69.424 188.311 69.7928C187.044 71.0775 184.938 73.5681 183.14 75.7455C181.343 77.9213 179.861 79.7793 179.86 79.7799L180.077 79.9529L180.322 79.8248C180.322 79.8231 180.034 79.2725 179.586 78.3931C178.912 77.0741 177.878 75.0192 176.919 72.9954C175.959 70.9732 175.072 68.9732 174.701 67.7961C174.484 67.1213 174.387 65.7313 174.389 64.0423C174.389 61.2201 174.639 57.5246 174.889 54.5387C175.014 53.0455 175.14 51.7292 175.233 50.7861C175.327 49.8435 175.39 49.2768 175.39 49.2752L175.114 49.2447L175.029 49.5086L175.114 49.2447" fill="black"/>
<path d="M173.866 51.9294C173.866 51.9294 175.878 57.05 180.267 63.2672C184.656 69.485 190.691 74.0566 190.691 74.0566C190.691 74.0566 195.445 61.8045 196.725 54.4894C198.006 47.1743 195.811 39.8597 195.811 39.8597C195.811 39.8597 194.897 50.8321 191.056 53.0267C187.216 55.2208 173.866 51.9294 173.866 51.9294Z" fill="white"/>
<path d="M173.864 51.9294L173.606 52.0309C173.611 52.0447 175.631 57.1836 180.038 63.4275C184.459 69.688 190.509 74.2679 190.52 74.2779C190.59 74.3305 190.68 74.3472 190.763 74.3233C190.847 74.3 190.915 74.2385 190.946 74.157C190.948 74.1481 195.705 61.9032 196.996 54.5371C197.288 52.8665 197.401 51.1992 197.401 49.6189C197.4 44.1996 196.078 39.7954 196.073 39.7799C196.036 39.6524 195.912 39.5697 195.78 39.5836C195.647 39.5975 195.543 39.7039 195.532 39.8364C195.532 39.837 195.518 40.0039 195.486 40.3061C195.373 41.3623 195.037 44.0443 194.315 46.6864C193.954 48.0071 193.496 49.3179 192.929 50.4046C192.362 51.4931 191.684 52.3497 190.916 52.7861C190.042 53.2906 188.517 53.5069 186.748 53.5036C184.091 53.5041 180.88 53.0439 178.34 52.582C177.069 52.3514 175.966 52.1207 175.18 51.9477C174.788 51.8612 174.475 51.7891 174.26 51.7387C174.045 51.6888 173.93 51.6599 173.93 51.6599C173.829 51.6355 173.723 51.6688 173.655 51.7464C173.587 51.8246 173.568 51.9344 173.606 52.0309L173.864 51.9294L173.797 52.1983C173.808 52.1994 181.317 54.0558 186.748 54.058C188.561 54.0547 190.144 53.8595 191.191 53.2674C192.233 52.668 193.028 51.523 193.668 50.1607C194.624 48.1152 195.223 45.553 195.589 43.4954C195.955 41.4383 196.084 39.8886 196.085 39.8825L195.808 39.8597L195.543 39.939C195.543 39.9396 195.562 40.0039 195.598 40.132C195.846 41.0297 196.847 44.9553 196.846 49.6189C196.846 51.1731 196.735 52.8088 196.449 54.4417C195.815 58.0696 194.309 62.9567 192.962 66.9273C192.289 68.9128 191.655 70.6711 191.191 71.9319C190.958 72.5629 190.768 73.0691 190.635 73.4179C190.503 73.7661 190.429 73.9563 190.429 73.9568L190.688 74.0566L190.855 73.836C190.855 73.8354 190.764 73.7666 190.592 73.6308C189.388 72.6804 184.303 68.5097 180.491 63.1075C178.305 60.0119 176.711 57.188 175.665 55.1404C175.142 54.1168 174.755 53.2868 174.5 52.7134C174.372 52.4273 174.277 52.205 174.215 52.0547C174.151 51.9045 174.122 51.828 174.121 51.828L173.864 51.9294L173.797 52.1983L173.864 51.9294" fill="black"/>
<path d="M183.908 53.6416C179.066 53.2114 173.866 51.9294 173.866 51.9294C173.866 51.9294 175.878 57.05 180.267 63.2672C180.69 63.8672 181.132 64.446 181.578 65.0127L189.144 56.2604L183.908 53.6416" fill="black"/>
<path d="M183.906 53.6417L183.93 53.3656C181.524 53.1515 179.021 52.7251 177.122 52.352C176.172 52.1657 175.373 51.9921 174.812 51.8657C174.252 51.7393 173.931 51.6606 173.93 51.66C173.829 51.6356 173.723 51.6689 173.655 51.7465C173.587 51.8247 173.568 51.9345 173.606 52.0309C173.611 52.0448 175.631 57.1836 180.038 63.4275C180.465 64.0324 180.909 64.6152 181.358 65.1846C181.409 65.2489 181.488 65.2878 181.57 65.29C181.652 65.2916 181.732 65.2562 181.785 65.1941L189.351 56.4418C189.407 56.3774 189.43 56.2893 189.413 56.2061C189.397 56.1224 189.342 56.0503 189.266 56.0126L184.029 53.3938L183.93 53.3656L183.906 53.6417L183.781 53.8895L188.698 56.3486L181.366 64.8314L181.576 65.0127L181.794 64.8409C181.348 64.277 180.91 63.702 180.491 63.1076C178.305 60.012 176.711 57.1881 175.665 55.1404C175.142 54.1169 174.755 53.2868 174.5 52.7135C174.372 52.4274 174.277 52.2051 174.215 52.0548C174.151 51.9045 174.122 51.828 174.121 51.828L173.864 51.9295L173.797 52.1984C173.804 52.2001 179.009 53.4842 183.881 53.9178L183.906 53.6417L183.781 53.8895L183.906 53.6417" fill="black"/>
<path d="M195.81 39.8596C195.81 39.8596 201.374 62.1199 203.406 78.8909C205.439 95.662 210.352 145.298 210.352 145.298C210.352 145.298 225.598 140.893 233.561 135.134C241.523 129.374 244.063 125.477 244.063 125.477C244.063 125.477 231.019 68.3876 231.019 67.5404C231.019 66.6937 232.375 58.2236 232.375 58.2236C232.375 58.2236 255.414 47.3815 264.223 40.7745C273.032 34.1674 270.83 30.6099 266.595 28.916C262.36 27.2221 249.146 29.0852 241.861 31.1184C234.577 33.1511 230.85 34.5068 230.85 34.5068C230.85 34.5068 222.718 33.8292 215.265 35.5231C207.811 37.217 195.81 39.8596 195.81 39.8596Z" fill="#FE7D55"/>
<path d="M195.81 39.8597L195.54 39.9268C195.541 39.9279 195.627 40.2733 195.783 40.9143C196.875 45.3988 201.356 64.2741 203.13 78.9243C204.147 87.3051 205.883 103.908 207.365 118.412C208.106 125.664 208.784 132.393 209.276 137.308C209.522 139.766 209.723 141.77 209.861 143.16C209.999 144.55 210.076 145.323 210.076 145.325C210.084 145.407 210.128 145.482 210.196 145.528C210.264 145.574 210.35 145.587 210.428 145.564C210.433 145.563 214.251 144.46 219.069 142.635C223.887 140.809 229.702 138.265 233.723 135.358C241.71 129.58 244.277 125.658 244.295 125.629C244.336 125.566 244.35 125.489 244.334 125.415C244.333 125.413 244.13 124.524 243.773 122.961C242.525 117.492 239.404 103.807 236.595 91.3965C235.191 85.1915 233.864 79.3052 232.889 74.9238C232.401 72.7336 232.002 70.9194 231.724 69.6303C231.585 68.986 231.477 68.4731 231.403 68.111C231.367 67.9297 231.339 67.7861 231.321 67.6846C231.311 67.6342 231.305 67.5937 231.301 67.566L231.296 67.5355V67.5316L231.167 67.5405H231.296V67.5316L231.167 67.5405H231.296C231.296 67.4656 231.316 67.2372 231.353 66.93C231.481 65.8449 231.805 63.6753 232.097 61.7818C232.243 60.8347 232.381 59.9564 232.482 59.3144C232.583 58.6723 232.648 58.2686 232.648 58.2675L232.374 58.2237L232.492 58.4744C232.495 58.4738 238.257 55.7619 245.122 52.2233C251.99 48.6824 259.953 44.3221 264.389 40.9964C266.619 39.323 268.158 37.8392 269.146 36.5135C270.134 35.1883 270.577 34.0123 270.578 32.9654C270.579 31.9319 270.136 31.0514 269.433 30.3461C268.73 29.6386 267.772 29.0891 266.697 28.6589C265.471 28.1715 263.62 27.9802 261.402 27.978C255.527 27.9796 247.106 29.368 241.786 30.8512C234.495 32.8861 230.761 34.244 230.755 34.2462L230.849 34.5069L230.873 34.2307C230.867 34.2302 229.254 34.0954 226.804 34.0954C223.742 34.096 219.376 34.305 215.203 35.2526C211.477 36.0993 206.614 37.1838 202.682 38.056C200.716 38.4918 198.983 38.8755 197.742 39.1494C196.5 39.4233 195.752 39.5886 195.75 39.5886C195.677 39.6046 195.613 39.6496 195.574 39.7133C195.534 39.7771 195.523 39.8536 195.54 39.9268L195.81 39.8597L195.869 40.1303C195.87 40.1303 207.87 37.4877 215.326 35.7932C219.435 34.8595 223.768 34.6499 226.804 34.6499C228.019 34.6499 229.026 34.6832 229.728 34.717C230.08 34.7336 230.355 34.7503 230.542 34.7625C230.729 34.7747 230.826 34.783 230.827 34.783L230.944 34.7675C230.945 34.7669 231.174 34.6837 231.636 34.5257C233.021 34.0505 236.478 32.9089 241.936 31.3857C247.196 29.9159 255.609 28.5313 261.402 28.5325C263.584 28.5308 265.398 28.7337 266.491 29.174C267.52 29.5848 268.415 30.1066 269.04 30.737C269.664 31.3697 270.021 32.0927 270.023 32.9654C270.024 33.8504 269.645 34.9166 268.701 36.1819C267.76 37.4461 266.259 38.901 264.056 40.5528C259.683 43.8341 251.722 48.1978 244.868 51.7303C241.44 53.4969 238.287 55.0583 235.991 56.1772C234.842 56.7366 233.908 57.1858 233.262 57.4946C232.615 57.804 232.257 57.972 232.256 57.9726C232.174 58.0119 232.115 58.089 232.101 58.1799C232.101 58.1799 231.762 60.298 231.423 62.5231C231.253 63.6353 231.083 64.7742 230.956 65.6897C230.893 66.1471 230.839 66.5491 230.802 66.8646C230.765 67.1828 230.742 67.4041 230.742 67.5405C230.743 67.5921 230.748 67.6164 230.755 67.6636C230.808 68.0024 231.047 69.1351 231.431 70.8945C234.116 83.186 243.793 125.539 243.793 125.539L244.063 125.478L243.831 125.326L243.804 125.366C243.515 125.788 240.838 129.526 233.398 134.909C229.457 137.762 223.667 140.301 218.872 142.117C216.474 143.025 214.324 143.755 212.773 144.256C211.998 144.507 211.373 144.701 210.942 144.832C210.51 144.964 210.275 145.031 210.275 145.031L210.352 145.298L210.627 145.27C210.627 145.269 205.715 95.6366 203.681 78.8578C201.644 62.059 196.08 39.7981 196.079 39.792L195.81 39.8597L195.869 40.1303L195.81 39.8597" fill="black"/>
<path d="M207.511 96.8142C207.243 97.6587 206.949 98.5652 206.626 99.5588Z" fill="white"/>
<path d="M203.911 40.1132C203.911 40.1132 204.181 40.5961 204.604 41.3635Z" fill="white"/>
<path d="M237.965 112.433C237.965 112.433 237.595 112.821 236.828 113.448Z" fill="white"/>
<path d="M235.151 49.1388L232.113 58.1351C232.069 58.2665 232.129 58.4112 232.254 58.4722C232.378 58.5338 232.529 58.4927 232.606 58.3774L239.721 47.705C239.807 47.5774 239.772 47.405 239.645 47.3202C239.517 47.2353 239.345 47.2697 239.26 47.3972L233.311 56.3214L235.676 49.3163C235.725 49.171 235.647 49.0141 235.502 48.9647C235.357 48.9159 235.2 48.9941 235.151 49.1388" fill="black"/>
<path d="M236.779 45.1794L236.077 47.2581Z" fill="white"/>
<path d="M175.117 49.2447C175.117 49.2447 176.811 80.0771 178.674 95.1536C180.538 110.231 183.587 147.5 183.587 147.5C183.587 147.5 177.658 146.992 173.761 142.249C169.866 137.506 168.002 133.948 168.002 133.948C168.002 133.948 168.002 101.761 168.002 100.406C168.002 99.0505 165.291 83.6345 162.75 76.0111C160.209 68.3877 156.482 59.5789 158.685 55.8517C160.887 52.1251 167.832 46.5344 170.374 45.8569C172.915 45.1793 174.947 45.8569 175.117 49.2447Z" fill="#FE7D55"/>
<path d="M175.114 49.2446L174.838 49.2602C174.838 49.2635 176.531 80.0915 178.397 95.188C179.327 102.718 180.556 115.805 181.551 127.006C182.049 132.606 182.488 137.735 182.803 141.465C182.96 143.329 183.087 144.844 183.174 145.892C183.261 146.941 183.308 147.521 183.308 147.523L183.585 147.5L183.608 147.224L183.547 147.218C182.912 147.151 177.542 146.427 173.973 142.073C172.033 139.711 170.599 137.644 169.651 136.169C169.177 135.433 168.825 134.843 168.592 134.439C168.475 134.237 168.388 134.081 168.33 133.976C168.272 133.872 168.245 133.819 168.245 133.819L168 133.948H168.277C168.277 133.948 168.277 125.901 168.277 117.685C168.277 109.469 168.277 101.083 168.277 100.406C168.276 100.199 168.232 99.8156 168.153 99.2423C167.595 95.259 165.245 82.632 163.01 75.9235C162.008 72.9172 160.825 69.7345 159.895 66.7592C158.964 63.7851 158.289 61.0138 158.29 58.863C158.29 57.6992 158.487 56.7244 158.921 55.9925C159.988 54.1817 162.264 51.8567 164.577 49.9233C165.735 48.9558 166.902 48.0825 167.934 47.4127C168.962 46.7429 169.864 46.2771 170.443 46.1246C170.996 45.9772 171.518 45.8979 171.992 45.8979C172.812 45.9001 173.469 46.1274 173.955 46.6386C174.44 47.1504 174.773 47.9849 174.837 49.2585L174.838 49.2602L175.114 49.2446L175.391 49.2308C175.324 47.8784 174.965 46.9004 174.358 46.2572C173.75 45.6129 172.912 45.3412 171.992 45.3434C171.457 45.3434 170.889 45.4321 170.299 45.589C169.607 45.7759 168.689 46.2627 167.631 46.948C166.049 47.976 164.179 49.4526 162.489 51.0273C160.8 52.6042 159.294 54.272 158.443 55.7109C157.939 56.5659 157.736 57.6393 157.736 58.863C157.737 61.1253 158.43 63.9281 159.366 66.9245C160.302 69.9197 161.487 73.1046 162.485 76.0987C163.748 79.8874 165.061 85.6434 166.054 90.6131C166.552 93.0982 166.969 95.3882 167.263 97.1397C167.41 98.0158 167.525 98.7566 167.604 99.3194C167.682 99.8783 167.723 100.273 167.722 100.406C167.722 101.761 167.722 133.948 167.722 133.948L167.754 134.076C167.761 134.089 169.633 137.663 173.545 142.425C175.535 144.847 178.037 146.182 180.038 146.914C182.039 147.645 183.544 147.775 183.561 147.777C183.642 147.783 183.723 147.754 183.78 147.697C183.838 147.639 183.867 147.559 183.861 147.478C183.861 147.475 180.812 110.21 178.947 95.1198C178.017 87.5929 177.127 76.1165 176.471 66.5264C176.142 61.7313 175.873 57.407 175.685 54.2815C175.591 52.7184 175.518 51.4553 175.468 50.5831C175.418 49.711 175.391 49.2308 175.391 49.2297V49.2308L175.114 49.2446" fill="black"/>
<path d="M172.182 122.14L169.186 120.734Z" fill="white"/>
<path d="M162.461 28.8623L165.356 35.9567C165.356 35.9567 161.592 32.0472 160.724 35.522C159.855 38.9969 162.461 43.0506 164.198 43.0506C165.936 43.0506 167.963 43.1954 167.963 43.1954C167.963 43.1954 174.043 53.9088 177.808 55.936C181.572 57.9631 186.639 59.7002 189.824 57.9631C193.01 56.2254 194.747 51.4481 195.76 47.8285C196.774 44.2089 196.05 33.3502 196.05 33.3502L190.838 11.9233C190.838 11.9233 194.457 10.6202 194.457 8.15896C194.457 5.69767 186.06 4.97409 186.06 4.97409C186.06 4.97409 189.39 1.06452 185.192 0.485657C180.993 -0.0937637 167.384 8.01425 166.949 8.30368C166.515 8.59311 169.265 3.23638 165.791 5.11825C162.316 7.00068 158.263 16.2664 158.697 18.4383C159.131 20.6096 162.461 28.8623 162.461 28.8623" fill="white"/>
<path d="M162.458 28.8624L162.202 28.9672L165.097 36.061L165.354 35.9568L165.553 35.7644C165.547 35.7578 165.088 35.2809 164.443 34.798C163.795 34.3184 162.973 33.8138 162.151 33.8055C161.787 33.8038 161.415 33.9208 161.116 34.1975C160.816 34.4731 160.594 34.8861 160.452 35.455C160.328 35.954 160.272 36.4625 160.272 36.9676C160.273 38.5639 160.826 40.1264 161.576 41.3063C161.952 41.8963 162.377 42.3909 162.819 42.7468C163.262 43.1006 163.726 43.3257 164.196 43.3279C165.057 43.3279 165.995 43.364 166.716 43.4C167.437 43.4361 167.939 43.4721 167.94 43.4721L167.96 43.1954L167.719 43.3324C167.721 43.3362 169.244 46.0193 171.242 48.9613C172.241 50.4329 173.358 51.9688 174.468 53.2701C175.579 54.5715 176.674 55.6388 177.674 56.18C180.379 57.6344 183.743 58.9496 186.677 58.9529C187.864 58.9529 188.985 58.7344 189.955 58.206C191.623 57.2939 192.877 55.6177 193.85 53.7281C194.823 51.8368 195.515 49.7221 196.024 47.9029C196.456 46.3498 196.573 43.6323 196.575 40.9382C196.575 37.0957 196.324 33.3353 196.324 33.3319L196.317 33.2848L191.104 11.8579L190.835 11.9233L190.929 12.1839C190.943 12.1789 191.865 11.8479 192.804 11.1914C193.274 10.8621 193.749 10.4512 194.114 9.9483C194.478 9.44651 194.732 8.8438 194.732 8.15903C194.733 7.76924 194.562 7.41882 194.3 7.12994C193.84 6.62316 193.104 6.24833 192.256 5.93506C189.713 5.00688 186.093 4.70025 186.082 4.69748L186.058 4.97416L186.268 5.15381C186.275 5.14604 186.597 4.769 186.922 4.22174C187.245 3.67282 187.584 2.95867 187.587 2.23286C187.59 1.77654 187.437 1.30357 187.049 0.940948C186.662 0.57777 186.073 0.328264 185.227 0.211271C185.067 0.189092 184.899 0.178552 184.722 0.178552C183.487 0.181879 181.808 0.666485 179.94 1.38452C177.143 2.46297 173.942 4.07925 171.396 5.45378C170.123 6.14077 169.016 6.76732 168.205 7.23584C167.8 7.46983 167.469 7.6639 167.23 7.80695C166.988 7.95111 166.845 8.03817 166.793 8.0731L166.919 8.26161V8.0376C166.83 8.04148 166.805 8.06811 166.793 8.0731L166.919 8.26161V8.0376V8.29931L167.062 8.08141L166.919 8.0376V8.29931L167.062 8.08141L166.922 8.29322L167.167 8.22003C167.158 8.18953 167.132 8.12798 167.062 8.08141L166.922 8.29322L167.167 8.22003L166.98 8.27603H167.176L167.167 8.22003L166.98 8.27603H167.176H167.093L167.176 8.28212V8.27603H167.093L167.176 8.28212C167.175 8.28156 167.183 8.23499 167.201 8.17234C167.264 7.94279 167.426 7.49588 167.571 7.00739C167.715 6.51558 167.848 5.97941 167.849 5.50977C167.848 5.24973 167.811 4.99967 167.668 4.78453C167.526 4.56607 167.256 4.433 166.963 4.43966C166.61 4.44187 166.199 4.5827 165.656 4.87491C164.772 5.35619 163.898 6.24501 163.061 7.3484C161.807 9.00405 160.646 11.1493 159.791 13.1432C159.364 14.1401 159.015 15.0988 158.771 15.9416C158.527 16.786 158.386 17.5096 158.385 18.063C158.385 18.2182 158.396 18.3607 158.422 18.4927C158.537 19.0655 158.829 19.9886 159.204 21.0737C160.327 24.3224 162.201 28.9638 162.201 28.9661L162.202 28.9672L162.458 28.8624L162.716 28.7587C162.715 28.7576 162.508 28.2441 162.189 27.4374C161.711 26.227 160.984 24.3606 160.336 22.5952C159.689 20.8337 159.119 19.1575 158.966 18.384C158.949 18.2992 158.939 18.1905 158.939 18.063C158.937 17.4492 159.168 16.4256 159.573 15.2424C160.181 13.4636 161.175 11.3034 162.319 9.43264C163.459 7.56131 164.767 5.98052 165.92 5.36229C166.42 5.08949 166.772 4.99135 166.963 4.99413C167.126 5.00022 167.16 5.03348 167.209 5.09558C167.256 5.16212 167.296 5.3085 167.294 5.50977C167.297 5.93172 167.137 6.54664 166.971 7.07394C166.887 7.33898 166.804 7.58404 166.74 7.78421C166.708 7.88401 166.68 7.97273 166.66 8.0498C166.64 8.1302 166.623 8.18842 166.621 8.27603C166.623 8.31151 166.621 8.35532 166.656 8.42962C166.673 8.46566 166.706 8.51057 166.757 8.54384C166.807 8.57822 166.87 8.59318 166.919 8.59207C167.022 8.58875 167.065 8.55492 167.1 8.53441C167.137 8.50945 167.388 8.35643 167.781 8.12521C169.164 7.31014 172.412 5.45488 175.816 3.807C177.517 2.98361 179.258 2.21124 180.82 1.6479C182.379 1.08289 183.767 0.731358 184.722 0.733022C184.877 0.733022 185.021 0.742447 185.151 0.76019C185.928 0.867203 186.4 1.09066 186.668 1.3446C186.934 1.59855 187.03 1.88743 187.033 2.23286C187.036 2.77735 186.748 3.43385 186.445 3.93786C186.295 4.1907 186.144 4.40694 186.031 4.55886C185.975 4.63482 185.927 4.6947 185.895 4.73462L185.846 4.79396C185.779 4.87269 185.762 4.98359 185.801 5.07952C185.84 5.17488 185.931 5.24141 186.034 5.25028C186.034 5.25028 186.161 5.26138 186.389 5.28578C187.184 5.37061 189.184 5.619 190.966 6.1086C191.856 6.35257 192.691 6.65864 193.281 7.01905C193.576 7.1987 193.808 7.39109 193.957 7.58294C194.107 7.77701 194.177 7.96053 194.177 8.15903C194.177 8.70463 193.979 9.18813 193.664 9.62284C193.195 10.2738 192.461 10.7928 191.844 11.1399C191.536 11.3134 191.258 11.4454 191.058 11.533C190.958 11.5768 190.878 11.6095 190.823 11.6311C190.768 11.6527 190.741 11.6622 190.741 11.6622C190.608 11.7104 190.532 11.8512 190.566 11.9888L195.778 33.4162L196.047 33.3502L195.77 33.3691C195.77 33.3697 195.786 33.602 195.81 34.0128C195.88 35.246 196.02 38.0738 196.02 40.9382C196.022 43.6079 195.893 46.3259 195.49 47.7537C194.987 49.5541 194.303 51.6378 193.357 53.4747C192.413 55.3133 191.205 56.8947 189.689 57.7197C188.823 58.1921 187.798 58.3984 186.677 58.3984C183.908 58.4017 180.591 57.1242 177.936 55.692C177.054 55.2196 175.976 54.1878 174.89 52.9103C173.256 50.994 171.58 48.5272 170.316 46.5433C169.685 45.5513 169.155 44.6792 168.784 44.056C168.599 43.7443 168.453 43.4943 168.354 43.3229C168.254 43.1516 168.202 43.059 168.201 43.0585C168.156 42.9781 168.072 42.9254 167.98 42.9187C167.976 42.9187 165.947 42.7735 164.196 42.7735C163.916 42.7757 163.548 42.6232 163.167 42.3144C162.593 41.8553 161.999 41.0679 161.558 40.1209C161.117 39.1733 160.825 38.0671 160.826 36.9676C160.826 36.5035 160.878 36.0405 160.99 35.5897C161.115 35.0891 161.297 34.7824 161.491 34.6061C161.685 34.4304 161.894 34.3622 162.151 34.3599C162.728 34.3522 163.508 34.7841 164.111 35.2416C164.414 35.4683 164.677 35.6968 164.863 35.8681C164.956 35.9535 165.029 36.0245 165.079 36.0738C165.129 36.1232 165.154 36.1487 165.154 36.1487C165.247 36.2446 165.394 36.2618 165.505 36.1891C165.617 36.1165 165.661 35.9751 165.611 35.852L162.715 28.7576L162.716 28.7587L162.458 28.8624" fill="black"/>
<path d="M186.06 4.97404C186.06 4.97404 189.39 1.06447 185.192 0.485607C180.993 -0.0938138 167.384 8.0142 166.949 8.30363C166.515 8.59306 169.266 3.23633 165.791 5.1182C162.316 7.00063 158.263 16.2664 158.697 18.4382C159.131 20.6101 162.461 28.8623 162.461 28.8623L165.356 35.9567C165.356 35.9567 168.687 38.9969 167.528 36.6803C166.37 34.3637 164.053 29.1517 164.633 28.4275C165.212 27.704 168.107 26.5457 168.252 24.9532C168.397 23.3608 165.502 18.7277 166.37 17.5694C167.239 16.4111 179.545 18.5829 181.717 17.2799C183.889 15.9769 181.138 12.7915 181.138 12.7915L190.838 11.9232C190.838 11.9232 194.457 10.6202 194.457 8.15891C194.457 5.69762 186.06 4.97404 186.06 4.97404" fill="black"/>
<path d="M187.94 40.7341C187.94 40.7341 186.637 43.1954 184.61 43.3401Z" fill="white"/>
<path d="M187.694 40.6043L187.682 40.627C187.614 40.7495 187.27 41.3428 186.723 41.9095C186.176 42.4789 185.435 43.0062 184.59 43.0639C184.437 43.0744 184.322 43.2075 184.333 43.36C184.344 43.513 184.477 43.6278 184.629 43.6167C185.755 43.533 186.636 42.8277 187.239 42.1701C187.843 41.5086 188.177 40.8765 188.184 40.8638C188.256 40.7285 188.204 40.561 188.069 40.4889C187.934 40.4174 187.766 40.469 187.694 40.6043Z" fill="black"/>
<path d="M178.964 34.0743C179.368 34.9449 179.196 35.8825 178.579 36.168C177.963 36.4547 177.135 35.9812 176.731 35.1106C176.328 34.2401 176.5 33.3025 177.117 33.0164C177.733 32.7303 178.56 33.2038 178.964 34.0743Z" fill="black"/>
<path d="M190.5 31.7927C190.652 32.7403 190.23 33.5953 189.559 33.7023C188.887 33.8093 188.221 33.1279 188.07 32.1803C187.919 31.2327 188.341 30.3777 189.012 30.2707C189.683 30.1637 190.35 30.8451 190.5 31.7927Z" fill="black"/>
<path d="M184.61 48.842C184.61 48.842 187.072 48.842 188.809 47.539Z" fill="white"/>
<path d="M184.61 49.1194C184.635 49.1138 187.133 49.1316 188.975 47.7609C189.098 47.6689 189.122 47.4953 189.03 47.3728C188.938 47.2503 188.765 47.2253 188.642 47.3174C187.824 47.9317 186.812 48.25 186.004 48.4069C185.601 48.4862 185.249 48.5256 185 48.5455C184.875 48.5549 184.776 48.5599 184.709 48.5627C184.642 48.5649 184.61 48.5649 184.61 48.5649C184.457 48.5649 184.332 48.6891 184.332 48.8421C184.332 48.9952 184.457 49.1194 184.61 49.1194Z" fill="black"/>
<path d="M172.179 32.5102L171.985 32.3743L172.177 32.5141L172.179 32.5102L171.985 32.3743L172.177 32.5141C172.181 32.508 172.454 32.1359 173.06 31.7694C173.667 31.4035 174.602 31.0347 175.983 31.0331C176.838 31.0336 177.865 31.1767 179.087 31.5626C179.379 31.6552 179.69 31.4927 179.783 31.2011C179.875 30.9089 179.713 30.5973 179.421 30.5052C178.104 30.0894 176.962 29.9241 175.983 29.9241C174.35 29.923 173.173 30.3871 172.412 30.8662C171.651 31.3447 171.303 31.8293 171.271 31.8742C171.095 32.1248 171.156 32.4708 171.408 32.6466C171.658 32.8218 172.004 32.7608 172.179 32.5102" fill="black"/>
<path d="M186.879 29.6031L186.879 29.602C186.895 29.5505 187.154 28.7848 187.829 28.0268C188.509 27.2683 189.57 26.5081 191.312 26.375C191.617 26.3523 191.847 26.0867 191.824 25.7812C191.801 25.4757 191.536 25.2467 191.23 25.2689C189.117 25.4213 187.731 26.4255 186.922 27.3803C186.108 28.3362 185.833 29.2344 185.818 29.2799C185.729 29.5732 185.894 29.8826 186.187 29.9719C186.48 30.0611 186.79 29.8959 186.879 29.6031" fill="black"/>
<path d="M194.457 26.5458C194.457 26.5458 195.471 24.2293 196.629 25.677C197.787 27.1253 198.221 30.0207 197.497 31.9031C196.774 33.785 196.339 35.3774 196.339 35.3774L196.049 33.3503L194.457 26.5458" fill="white"/>
<path d="M194.455 26.5457L194.708 26.6572L194.713 26.6461C194.742 26.5834 194.894 26.2652 195.115 25.9796C195.224 25.8371 195.351 25.7035 195.478 25.6136C195.606 25.5227 195.725 25.4778 195.835 25.4784C195.978 25.48 196.162 25.5449 196.41 25.8504C197.126 26.7381 197.575 28.3056 197.571 29.7738C197.572 30.5079 197.462 31.2171 197.236 31.8032C196.507 33.6995 196.071 35.2986 196.069 35.3047L196.336 35.3773L196.611 35.3379L196.321 33.3113L196.317 33.287L194.725 26.4825L194.455 26.5457L194.708 26.6572L194.455 26.5457L194.184 26.6089L195.774 33.4017L196.062 35.4167C196.081 35.5464 196.188 35.6457 196.319 35.654C196.451 35.6623 196.569 35.5769 196.604 35.4505C196.604 35.4499 196.63 35.3535 196.682 35.1766C196.837 34.6454 197.215 33.4034 197.754 32.0022C198.01 31.3336 198.126 30.5623 198.126 29.7738C198.122 28.1964 197.671 26.5463 196.843 25.5039C196.539 25.1196 196.188 24.9222 195.835 24.9239C195.556 24.9244 195.314 25.0414 195.118 25.19C194.535 25.6414 194.213 26.4182 194.201 26.4348C194.176 26.4903 194.171 26.5501 194.184 26.6089L194.455 26.5457" fill="black"/>
<path d="M221.097 15.2528C221.097 15.2528 205.171 12.3574 204.157 12.3574C203.144 12.3574 191.273 14.5292 189.535 15.2528C187.798 15.977 174.623 19.7412 174.912 20.6095C175.202 21.4784 176.794 21.7684 176.794 21.7684C176.794 21.7684 177.084 23.0708 181.717 23.6503C186.35 24.2291 197.208 22.7814 197.353 23.795C197.498 24.8085 196.629 25.6768 196.629 25.6768L197.932 27.9934C197.932 27.9934 202.71 27.2698 204.303 26.1115C205.895 24.9533 210.383 21.3337 210.383 21.3337L220.083 22.0578L221.097 15.2528" fill="white"/>
<path d="M221.094 15.2528L221.144 14.98C221.144 14.98 217.162 14.2564 213.053 13.5323C210.998 13.1702 208.912 12.8082 207.275 12.5365C206.456 12.4006 205.75 12.2869 205.214 12.2077C204.947 12.1677 204.722 12.1367 204.546 12.1145C204.368 12.0934 204.247 12.0807 204.155 12.0801C203.989 12.0812 203.7 12.1167 203.268 12.1777C201.77 12.3923 198.707 12.934 195.821 13.5029C194.378 13.7868 192.981 14.0779 191.846 14.3379C190.708 14.5996 189.848 14.8231 189.426 14.9972C189.023 15.1658 187.887 15.5339 186.438 15.9936C184.261 16.685 181.355 17.5938 178.989 18.4172C177.805 18.8291 176.757 19.2195 175.996 19.5544C175.615 19.7224 175.306 19.8754 175.078 20.0185C174.964 20.0906 174.869 20.1593 174.791 20.238C174.717 20.3168 174.634 20.4105 174.628 20.5801L174.647 20.6977L174.647 20.6971C174.743 20.9838 174.938 21.2045 175.155 21.3753C175.809 21.8809 176.724 22.0334 176.742 22.0412L176.792 21.7684L176.521 21.8283C176.536 21.9053 176.67 22.3034 177.371 22.7287C178.073 23.1562 179.339 23.632 181.68 23.9253C182.523 24.0306 183.554 24.0689 184.683 24.0694C188.155 24.0689 192.577 23.7007 195.158 23.7013C195.803 23.7007 196.334 23.7251 196.687 23.7789C196.863 23.8055 196.995 23.8415 197.06 23.872L197.096 23.8909L197.104 23.897L197.145 23.8504L197.093 23.8815L197.104 23.897L197.145 23.8504L197.093 23.8815L197.202 23.816L197.076 23.8343L197.093 23.8815L197.202 23.816L197.076 23.8343C197.085 23.8987 197.09 23.9624 197.09 24.0256C197.091 24.4049 196.931 24.7747 196.761 25.047C196.677 25.1834 196.592 25.2943 196.529 25.3702L196.454 25.4562L196.435 25.4767L196.431 25.4811C196.343 25.5687 196.324 25.7051 196.385 25.8132L197.688 28.1293C197.745 28.2302 197.857 28.2851 197.971 28.2679C197.976 28.2668 199.176 28.0855 200.581 27.7567C201.284 27.5925 202.038 27.3913 202.723 27.1562C203.409 26.92 204.023 26.6538 204.463 26.3355C206.069 25.1673 210.552 21.5516 210.555 21.5494L210.38 21.3337L210.36 21.6104L220.06 22.3339C220.206 22.345 220.334 22.2425 220.355 22.0983L221.368 15.2938C221.391 15.1458 221.291 15.0072 221.144 14.98L221.094 15.2528L220.82 15.2123L219.845 21.7617L210.402 21.057C210.331 21.052 210.262 21.0736 210.206 21.118C210.206 21.1185 209.926 21.3437 209.481 21.7013C208.147 22.772 205.32 25.027 204.137 25.887C203.781 26.1481 203.201 26.4071 202.542 26.6316C201.554 26.9715 200.387 27.2449 199.47 27.4317C199.012 27.5254 198.615 27.5975 198.334 27.6458C198.053 27.6946 197.889 27.7195 197.888 27.7195L197.93 27.9934L198.172 27.8576L196.869 25.541L196.627 25.6768L196.823 25.8731C196.833 25.8626 197.031 25.6646 197.232 25.3392C197.433 25.0137 197.643 24.5579 197.644 24.0256C197.644 23.9375 197.638 23.8471 197.625 23.7556C197.611 23.6519 197.555 23.5615 197.493 23.5017C197.383 23.3963 197.258 23.3475 197.115 23.3037C196.689 23.1823 196.026 23.1485 195.158 23.1468C192.535 23.1473 188.122 23.515 184.683 23.515C183.567 23.515 182.554 23.4756 181.749 23.3752C179.457 23.0891 178.262 22.6239 177.66 22.2552C177.359 22.0711 177.206 21.9131 177.131 21.8133C177.092 21.7634 177.073 21.7274 177.065 21.7091L177.059 21.6946L176.935 21.7362L177.062 21.7079L177.059 21.6946L176.935 21.7362L177.062 21.7079C177.039 21.5993 176.951 21.5155 176.842 21.4956L176.782 21.4834C176.64 21.4529 176.266 21.3597 175.915 21.1917C175.559 21.0248 175.251 20.7798 175.173 20.5219L174.998 20.5801H175.182L175.173 20.5219L174.998 20.5801H175.182H175.029L175.172 20.6373L175.182 20.5801H175.029L175.172 20.6373L175.094 20.6062L175.167 20.6472L175.172 20.6373L175.094 20.6062L175.167 20.6472L175.161 20.6439L175.167 20.6483V20.6472L175.161 20.6439L175.167 20.6483C175.173 20.6367 175.244 20.5685 175.36 20.4964C175.804 20.2103 176.848 19.7762 178.152 19.3032C180.113 18.5896 182.687 17.7646 184.916 17.0576C186.031 16.7038 187.06 16.3801 187.885 16.1134C188.711 15.8455 189.326 15.6387 189.639 15.509C189.83 15.4291 190.202 15.3155 190.688 15.189C192.398 14.7427 195.561 14.1012 198.398 13.5739C199.818 13.3099 201.157 13.0743 202.196 12.9046C202.715 12.8203 203.159 12.7521 203.498 12.705C203.834 12.6584 204.08 12.6335 204.155 12.6346C204.19 12.634 204.312 12.644 204.479 12.6651C205.753 12.8215 209.905 13.5384 213.724 14.2137C215.635 14.5514 217.465 14.8797 218.818 15.1231C220.17 15.3665 221.042 15.5251 221.045 15.5256L221.094 15.2528L220.82 15.2123L221.094 15.2528" fill="black"/>
<path d="M185.767 17.28C185.767 17.28 179.252 20.0307 178.239 20.6096C177.225 21.189 180.121 22.3473 181.858 22.0578C183.596 21.7684 190.256 19.1618 191.269 18.8724C192.283 18.583 196.916 19.7413 200.246 20.1754C203.575 20.6096 205.892 19.5965 206.471 19.3071" fill="white"/>
<path d="M185.662 17.0244C185.661 17.025 184.032 17.7125 182.275 18.4733C181.397 18.8536 180.486 19.2523 179.731 19.5922C178.974 19.9338 178.38 20.2115 178.104 20.369C178.007 20.4245 177.923 20.4899 177.859 20.5775C177.794 20.664 177.753 20.7771 177.754 20.8874C177.754 21.0344 177.814 21.1575 177.889 21.2567C178.021 21.4314 178.211 21.5667 178.444 21.697C179.142 22.0773 180.256 22.3778 181.262 22.3806C181.484 22.3806 181.7 22.3657 181.906 22.3313C182.374 22.2525 183.117 22.0335 184.008 21.7424C185.341 21.3055 186.99 20.7078 188.401 20.1916C189.107 19.9337 189.753 19.6964 190.269 19.5101C190.784 19.3244 191.175 19.188 191.347 19.1392C191.414 19.1192 191.549 19.1032 191.724 19.1037C192.451 19.102 193.844 19.3399 195.405 19.6288C196.969 19.9171 198.715 20.2553 200.211 20.4505C200.797 20.527 201.353 20.5592 201.874 20.5592C204.38 20.5592 206.09 19.8079 206.597 19.555C206.734 19.4868 206.789 19.3199 206.721 19.183C206.652 19.046 206.486 18.9906 206.349 19.0588C205.896 19.2856 204.267 20.0053 201.874 20.0047C201.376 20.0047 200.844 19.9737 200.283 19.9005C198.812 19.7092 197.073 19.3726 195.506 19.0832C193.935 18.7949 192.55 18.5509 191.724 18.5492C191.52 18.5498 191.348 18.5631 191.195 18.6058C190.92 18.6851 190.319 18.9008 189.522 19.1913C188.33 19.626 186.718 20.2226 185.243 20.7372C183.772 21.2517 182.42 21.6848 181.815 21.784C181.645 21.8128 181.458 21.8261 181.262 21.8261C180.583 21.8273 179.798 21.6609 179.203 21.4341C178.906 21.3216 178.655 21.193 178.496 21.076C178.416 21.0183 178.36 20.9634 178.333 20.9251L178.309 20.8863L178.308 20.8819L178.28 20.8874H178.308L178.308 20.8819L178.28 20.8874H178.308H178.259L178.305 20.9035L178.308 20.8874H178.259L178.305 20.9035L178.287 20.8969L178.304 20.908L178.305 20.9035L178.287 20.8969L178.304 20.908C178.304 20.9068 178.323 20.8819 178.379 20.8503C178.609 20.7183 179.209 20.435 179.958 20.0979C181.086 19.5905 182.566 18.9496 183.764 18.4356C184.962 17.9221 185.875 17.5362 185.877 17.5357C186.018 17.4758 186.084 17.3133 186.025 17.1719C185.965 17.0311 185.802 16.9651 185.662 17.0244" fill="black"/>
<path d="M260.327 38.4031C260.327 38.4031 255.245 39.7582 249.146 38.4031C243.047 37.0474 226.954 29.0852 226.954 29.0852L215.943 25.8671L218.484 12.9923C218.484 12.9923 246.266 16.3801 254.058 19.26C261.852 22.1399 273.202 28.747 272.863 31.1185C272.524 33.4899 266.256 38.5722 266.256 38.5722" fill="#FE7D55"/>
<path d="M260.257 38.1353C260.257 38.1353 260.226 38.1436 260.16 38.1591C259.698 38.2711 257.626 38.728 254.757 38.728C253.117 38.728 251.218 38.5788 249.208 38.1325C246.21 37.4682 240.655 35.1406 235.879 32.9831C233.489 31.9047 231.288 30.8678 229.685 30.1004C228.884 29.7173 228.232 29.4013 227.78 29.1811C227.329 28.961 227.079 28.8374 227.078 28.8368L227.033 28.8196L216.265 25.6719L218.757 13.0455L218.485 12.9923L218.452 13.2673C218.453 13.2673 218.885 13.32 219.66 13.4181C222.37 13.7619 229.255 14.6607 236.311 15.7885C239.839 16.3518 243.41 16.9728 246.521 17.6094C249.632 18.2453 252.287 18.9002 253.964 19.5201C257.781 20.9301 262.475 23.2489 266.202 25.5155C268.065 26.6478 269.687 27.7689 270.832 28.7487C271.404 29.2377 271.857 29.6924 272.158 30.086C272.462 30.4786 272.599 30.8107 272.595 31.0115L272.59 31.0797V31.0791C272.525 31.572 272.096 32.3222 271.471 33.1123C270.536 34.305 269.185 35.6219 268.072 36.6343C267.515 37.1406 267.017 37.5719 266.659 37.8763C266.3 38.1807 266.083 38.3565 266.082 38.3571C265.964 38.4535 265.946 38.6282 266.042 38.7469C266.138 38.8661 266.313 38.8844 266.432 38.7879C266.436 38.7846 268.007 37.5104 269.627 35.9335C270.437 35.1445 271.26 34.28 271.907 33.455C272.553 32.6255 273.034 31.8509 273.139 31.1578V31.1573L273.149 31.0115C273.144 30.5978 272.933 30.1908 272.599 29.7489C272.008 28.9788 270.99 28.0966 269.68 27.1451C265.757 24.2974 259.225 20.8746 254.156 19C252.177 18.2692 248.975 17.5184 245.267 16.7937C234.15 14.623 218.522 12.7173 218.519 12.7167C218.374 12.699 218.241 12.7955 218.213 12.9385L215.672 25.8133C215.644 25.9547 215.728 26.0928 215.866 26.1332L226.878 29.3514L226.956 29.0852L226.833 29.3342C226.834 29.3347 230.86 31.3264 235.65 33.4888C240.445 35.6512 245.987 37.9822 249.087 38.6737C251.144 39.1305 253.084 39.2825 254.757 39.2825C258.103 39.2825 260.383 38.6748 260.4 38.6709C260.548 38.6315 260.635 38.4796 260.596 38.3316C260.557 38.1835 260.405 38.0954 260.257 38.1353Z" fill="black"/>
<path d="M164.694 93.9382C164.702 93.9465 166.58 96.0978 169.413 98.2558C172.248 100.411 176.039 102.587 179.92 102.592C181.224 102.592 182.537 102.342 183.814 101.759C186.057 100.729 187.953 98.3723 189.577 95.4375C192.008 91.0317 193.813 85.2946 195.017 80.6514C196.22 76.0094 196.819 72.4636 196.82 72.4586C196.845 72.3072 196.744 72.1647 196.592 72.1392C196.442 72.1137 196.299 72.2152 196.273 72.366C196.273 72.3671 196.208 72.7558 196.075 73.4494C195.612 75.8763 194.332 82.0088 192.234 87.9488C191.186 90.9191 189.933 93.8406 188.482 96.2215C187.032 98.6041 185.382 100.436 183.583 101.254C182.383 101.803 181.153 102.037 179.92 102.037C176.253 102.042 172.536 99.9392 169.749 97.8145C168.356 96.7538 167.194 95.6914 166.383 94.8952C165.976 94.4971 165.658 94.1655 165.441 93.9338C165.333 93.8184 165.25 93.7275 165.195 93.6659C165.14 93.6044 165.112 93.5733 165.112 93.5733C165.011 93.458 164.836 93.4458 164.721 93.5467C164.606 93.6476 164.594 93.8223 164.694 93.9382" fill="black"/>
<path d="M151.307 85.1155C151.317 85.1271 153.169 87.442 156.286 89.7625C159.403 92.0807 163.792 94.4134 168.88 94.415C169.361 94.415 169.849 94.394 170.343 94.3502C175.738 93.8711 179.379 90.5326 181.639 86.5632C183.904 82.5893 184.825 77.975 184.827 74.8018C184.827 74.7103 184.826 74.6205 184.824 74.5312C184.822 74.3782 184.695 74.2562 184.542 74.259C184.389 74.2612 184.267 74.3876 184.27 74.5406C184.271 74.6266 184.272 74.7136 184.272 74.8018C184.274 77.8719 183.365 82.4224 181.158 86.2882C178.945 90.1584 175.471 93.3344 170.293 93.7979C169.817 93.8406 169.345 93.8606 168.88 93.8606C163.967 93.8622 159.679 91.5967 156.617 89.3178C155.087 88.1789 153.865 87.0389 153.027 86.1845C152.608 85.7576 152.285 85.4021 152.067 85.1543C151.958 85.0301 151.876 84.9331 151.821 84.8676C151.766 84.8016 151.74 84.7689 151.74 84.7689C151.644 84.6492 151.47 84.6298 151.35 84.7257C151.231 84.8211 151.211 84.9957 151.307 85.1155" fill="black"/>
<path d="M150.821 94.593L147.416 93.4497L152.781 77.4826L156.186 78.6265L150.821 94.593" fill="#BCE166"/>
<path d="M150.82 94.593L150.908 94.3302L147.766 93.275L152.954 77.8336L155.833 78.8006L150.557 94.5049L150.82 94.593L150.908 94.3302L150.82 94.593L151.083 94.6817L156.448 78.7147C156.496 78.5694 156.418 78.4125 156.273 78.3637L152.868 77.2198C152.723 77.171 152.566 77.2492 152.517 77.3939L147.152 93.3615C147.129 93.4309 147.135 93.5079 147.167 93.5733C147.2 93.6382 147.258 93.6892 147.327 93.7125L150.732 94.8558C150.877 94.9046 151.034 94.8264 151.083 94.6817L150.82 94.593" fill="#7B9836"/>
<path d="M156.928 79.5293L151.645 77.7539L152.434 75.4063L157.717 77.1811L156.928 79.5293Z" fill="#BCE166"/>
<path d="M156.927 79.5293L157.015 79.2665L151.995 77.5798L152.607 75.7573L157.365 77.3552L156.664 79.4406L156.927 79.5293L157.015 79.2665L156.927 79.5293L157.19 79.6175L157.979 77.2693C158.002 77.2 157.997 77.1229 157.965 77.0575C157.932 76.9921 157.874 76.9416 157.804 76.9183L152.521 75.1435C152.376 75.0947 152.219 75.1723 152.17 75.3176L151.381 77.6657C151.358 77.735 151.363 77.8121 151.396 77.8775C151.429 77.943 151.487 77.9934 151.556 78.0167L156.839 79.7916C156.984 79.8404 157.141 79.7627 157.19 79.6175L156.927 79.5293" fill="#7B9836"/>
<path d="M158.334 97.1174L154.93 95.9741L160.294 80.007L163.699 81.1509L158.334 97.1174" fill="#BCE166"/>
<path d="M158.336 97.1177L158.424 96.8549L155.282 95.7997L160.47 80.3583L163.349 81.3258L158.073 97.0295L158.336 97.1177L158.424 96.8549L158.336 97.1177L158.599 97.2058L163.963 81.2393C164.012 81.0941 163.934 80.9372 163.788 80.8884L160.384 79.7445C160.315 79.7212 160.238 79.7267 160.172 79.7589C160.107 79.7916 160.056 79.8498 160.033 79.9191L154.668 95.8856C154.645 95.955 154.651 96.032 154.683 96.0975C154.716 96.1629 154.774 96.2139 154.843 96.2372L158.248 97.3805C158.393 97.4293 158.55 97.3511 158.599 97.2058L158.336 97.1177" fill="#7B9836"/>
<path d="M164.442 82.0532L159.159 80.2784L159.948 77.9302L165.231 79.705L164.442 82.0532Z" fill="#BCE166"/>
<path d="M164.443 82.0532L164.532 81.7904L159.511 80.1037L160.124 78.2812L164.881 79.8797L164.18 81.9651L164.443 82.0532L164.532 81.7904L164.443 82.0532L164.706 82.1419L165.495 79.7938C165.518 79.7245 165.513 79.6474 165.481 79.582C165.448 79.5165 165.39 79.4655 165.32 79.4422L160.037 77.6674C159.892 77.6186 159.735 77.6967 159.686 77.842L158.897 80.1902C158.874 80.2595 158.88 80.3366 158.912 80.402C158.944 80.4674 159.003 80.5179 159.072 80.5412L164.355 82.316C164.5 82.3648 164.657 82.2866 164.706 82.1419L164.443 82.0532" fill="#7B9836"/>
<path d="M158.335 97.1174L147.299 93.4102L151.401 81.1997L162.438 84.908L158.335 97.1174" fill="#BCE166"/>
<path d="M158.337 97.1177L158.425 96.8549L147.652 93.2358L151.578 81.5509L162.088 85.0824L158.074 97.0295L158.337 97.1177L158.425 96.8549L158.337 97.1177L158.599 97.2058L162.702 84.9964C162.75 84.8511 162.672 84.6942 162.527 84.6454L151.492 80.9371C151.422 80.9139 151.345 80.9194 151.28 80.9516C151.214 80.9843 151.163 81.0425 151.14 81.1118L147.038 93.3218C147.015 93.3911 147.02 93.4682 147.053 93.5336C147.085 93.599 147.143 93.65 147.213 93.6733L158.248 97.3805C158.394 97.4293 158.551 97.3511 158.599 97.2058L158.337 97.1177Z" fill="#7B9836"/>
<path d="M148.244 101.567L137.949 98.1073L143.407 89.0966L149.334 91.0883L148.244 101.567Z" fill="#BCE166"/>
<path d="M148.244 101.567L148.332 101.304L138.365 97.9549L143.528 89.4305L149.034 91.2807L147.968 101.538L148.244 101.567L148.332 101.304L148.244 101.567L148.519 101.595L149.609 91.1172C149.622 90.988 149.544 90.8671 149.421 90.8255L143.495 88.8338C143.372 88.7928 143.236 88.8422 143.169 88.9531L137.711 97.9638C137.668 98.0358 137.659 98.124 137.688 98.2027C137.717 98.282 137.78 98.3436 137.86 98.3702L148.155 101.83C148.235 101.856 148.322 101.845 148.393 101.8C148.464 101.754 148.51 101.679 148.519 101.595L148.244 101.567" fill="#7B9836"/>
<path d="M144.573 112.492L134.278 109.033L137.948 98.1073L148.244 101.567L144.573 112.492" fill="#BCE166"/>
<path d="M144.572 112.492L144.661 112.23L134.628 108.859L138.123 98.4589L147.892 101.741L144.309 112.404L144.572 112.492L144.661 112.23L144.572 112.492L144.835 112.581L148.506 101.655C148.554 101.51 148.477 101.353 148.331 101.304L138.036 97.8445C137.967 97.8212 137.89 97.8268 137.825 97.8595C137.759 97.8916 137.708 97.9499 137.685 98.0192L134.015 108.945C133.966 109.09 134.044 109.247 134.189 109.296L144.484 112.755C144.553 112.779 144.63 112.773 144.696 112.74C144.761 112.708 144.812 112.65 144.835 112.581L144.572 112.492" fill="#7B9836"/>
<path d="M150.749 91.7021L141.908 88.7319L145.579 77.8066L154.419 80.7763L150.749 91.7021Z" fill="#BCE166"/>
<path d="M150.746 91.702L150.834 91.4391L142.257 88.557L145.751 78.1574L154.065 80.9508L150.483 91.6133L150.746 91.702L150.834 91.4391L150.746 91.702L151.009 91.7901L154.68 80.8643C154.728 80.7196 154.65 80.5621 154.505 80.5133L145.664 77.5436C145.519 77.4948 145.362 77.573 145.313 77.7177L141.643 88.6435C141.62 88.7128 141.625 88.7899 141.657 88.8553C141.69 88.9207 141.748 88.9712 141.818 88.9945L150.657 91.9648C150.727 91.9881 150.804 91.9825 150.869 91.9498C150.935 91.9177 150.986 91.8594 151.009 91.7901L150.746 91.702" fill="#7B9836"/>
<path d="M163.272 106.615L152.977 103.156L158.434 94.1455L164.362 96.1372L163.272 106.615Z" fill="#BCE166"/>
<path d="M163.272 106.615L163.36 106.352L153.393 103.004L158.557 94.4789L164.062 96.3291L162.996 106.586L163.272 106.615L163.36 106.352L163.272 106.615L163.547 106.644L164.637 96.1656C164.65 96.0369 164.573 95.9155 164.449 95.8745L158.523 93.8828C158.4 93.8412 158.264 93.8911 158.197 94.002L152.739 103.013C152.695 103.085 152.687 103.172 152.716 103.252C152.745 103.33 152.808 103.392 152.888 103.419L163.183 106.878C163.263 106.905 163.35 106.894 163.421 106.849C163.492 106.803 163.538 106.728 163.547 106.644L163.272 106.615" fill="#7B9836"/>
<path d="M159.598 117.541L149.304 114.082L152.974 103.156L163.27 106.615L159.598 117.541" fill="#BCE166"/>
<path d="M159.6 117.541L159.689 117.278L149.656 113.907L153.15 103.507L162.92 106.79L159.337 117.453L159.6 117.541L159.689 117.278L159.6 117.541L159.863 117.629L163.533 106.703C163.582 106.558 163.505 106.401 163.359 106.352L153.064 102.893C152.919 102.845 152.762 102.923 152.713 103.068L149.042 113.994C148.994 114.139 149.072 114.296 149.216 114.345L159.512 117.804C159.581 117.827 159.658 117.822 159.724 117.789C159.789 117.757 159.84 117.698 159.863 117.629L159.6 117.541Z" fill="#7B9836"/>
<path d="M165.777 96.751L156.936 93.7807L160.607 82.8554L169.447 85.8252L165.777 96.751" fill="#BCE166"/>
<path d="M165.774 96.751L165.862 96.4882L157.285 93.606L160.779 83.2064L169.094 85.9998L165.511 96.6628L165.774 96.751L165.862 96.4882L165.774 96.751L166.037 96.8392L169.707 85.9133C169.731 85.844 169.725 85.767 169.692 85.7015C169.66 85.6366 169.602 85.5856 169.533 85.5624L160.692 82.5926C160.547 82.5438 160.39 82.622 160.341 82.7667L156.671 93.692C156.622 93.8373 156.7 93.9947 156.845 94.0435L165.685 97.0138C165.755 97.0371 165.832 97.0316 165.897 96.9994C165.963 96.9667 166.014 96.9085 166.037 96.8392L165.774 96.751" fill="#7B9836"/>
<path d="M142.08 77.0774C142.08 77.0774 140.88 79.0535 141.233 79.6179C141.586 80.1824 145.044 82.0881 145.539 82.2295C146.032 82.3709 147.373 81.6645 147.302 80.7474C147.232 79.8297 144.55 77.8542 143.703 77.3596C142.857 76.8655 142.433 76.7951 142.08 77.0774Z" fill="white"/>
<path d="M142.078 77.0773L141.84 76.9337C141.838 76.9381 141.606 77.319 141.372 77.8025C141.255 78.0443 141.137 78.3116 141.046 78.5744C140.956 78.8383 140.89 79.0945 140.888 79.3384C140.889 79.4815 140.912 79.6284 140.995 79.7648C141.075 79.8879 141.18 79.9833 141.321 80.1003C141.804 80.4973 142.706 81.0495 143.557 81.5319C143.981 81.7725 144.391 81.9932 144.724 82.1629C144.89 82.2477 145.037 82.3198 145.159 82.3758C145.284 82.4318 145.375 82.4712 145.459 82.4956C145.533 82.5167 145.607 82.5244 145.681 82.5244C146.055 82.5189 146.485 82.3409 146.868 82.0542C147.057 81.9095 147.23 81.7348 147.361 81.5286C147.491 81.3229 147.58 81.0806 147.58 80.8172L147.576 80.7257C147.561 80.5477 147.494 80.3853 147.4 80.2206C147.072 79.6545 146.381 79.0152 145.669 78.4313C144.956 77.8513 144.232 77.3495 143.84 77.1205C143.304 76.8106 142.916 76.6393 142.537 76.6354C142.301 76.6326 142.078 76.7191 141.905 76.8611L141.84 76.9337L142.078 77.0773L142.251 77.2941C142.349 77.2181 142.42 77.1921 142.537 77.1893C142.723 77.1854 143.056 77.3013 143.561 77.5991C143.961 77.8319 144.842 78.4479 145.611 79.1055C145.997 79.4343 146.356 79.7759 146.616 80.0803C146.746 80.2322 146.85 80.3747 146.919 80.4962C146.989 80.617 147.021 80.7168 147.023 80.7684L147.025 80.8172C147.025 80.9558 146.98 81.0939 146.893 81.2319C146.763 81.4377 146.538 81.6323 146.3 81.7659C146.065 81.9012 145.813 81.9727 145.681 81.9699L145.612 81.9627C145.584 81.9555 145.476 81.9123 145.341 81.8485C144.858 81.6223 143.937 81.1266 143.111 80.6309C142.698 80.383 142.306 80.1346 142.004 79.9217C141.854 79.8158 141.725 79.7177 141.63 79.6367C141.535 79.5574 141.473 79.4865 141.465 79.4709C141.459 79.4626 141.442 79.4188 141.443 79.3384C141.442 79.2031 141.489 78.9863 141.57 78.7551C141.691 78.4069 141.877 78.0182 142.034 77.7221C142.113 77.5735 142.183 77.4471 142.234 77.359C142.284 77.2703 142.314 77.2215 142.314 77.2215L142.078 77.0773L142.251 77.2941L142.078 77.0773" fill="black"/>
<path d="M140.18 80.9825C140.18 80.9825 139.601 83.2203 140.102 83.6595C140.603 84.0981 144.463 84.9242 144.977 84.9164C145.491 84.9092 146.571 83.8463 146.239 82.9886C145.906 82.1302 142.768 81.0124 141.815 80.784C140.862 80.5555 140.436 80.6099 140.18 80.9825" fill="white"/>
<path d="M140.177 80.9824L139.908 80.9131C139.907 80.9242 139.62 82.0148 139.618 82.8804C139.618 83.0689 139.631 83.2491 139.671 83.4154C139.711 83.5801 139.775 83.7415 139.916 83.8679C140.028 83.9621 140.156 84.0231 140.322 84.0941C140.896 84.3331 141.912 84.6003 142.862 84.8166C143.336 84.9241 143.791 85.0173 144.16 85.0844C144.533 85.1509 144.801 85.1919 144.967 85.1936H144.976H144.979C145.172 85.1881 145.342 85.1143 145.515 85.0112C145.77 84.8537 146.024 84.6164 146.225 84.3281C146.424 84.0403 146.574 83.6993 146.575 83.3289C146.575 83.1825 146.55 83.0328 146.494 82.8881C146.429 82.7223 146.317 82.5859 146.18 82.4551C145.702 82.0082 144.856 81.5951 144.005 81.2419C143.156 80.892 142.318 80.6203 141.877 80.5144V80.5139C141.49 80.4218 141.179 80.3708 140.909 80.3703C140.702 80.3703 140.515 80.4019 140.349 80.4789C140.183 80.556 140.048 80.6797 139.948 80.8249L139.908 80.9131L140.177 80.9824L140.405 81.1393C140.461 81.0589 140.512 81.0157 140.584 80.9813C140.655 80.948 140.757 80.9247 140.909 80.9247C141.107 80.9242 141.383 80.9658 141.748 81.0534C142.197 81.161 143.219 81.4958 144.145 81.9039C144.609 82.1074 145.052 82.3303 145.388 82.5471C145.556 82.6552 145.698 82.7617 145.799 82.8582C145.901 82.9535 145.96 83.04 145.978 83.0883C146.007 83.1659 146.021 83.2446 146.021 83.3289C146.025 83.6095 145.846 83.9594 145.6 84.2233C145.479 84.3552 145.345 84.4656 145.225 84.5382C145.108 84.612 145.001 84.6414 144.97 84.6391L144.975 84.9164L144.974 84.6391H144.967C144.931 84.6402 144.814 84.6291 144.664 84.6064C144.129 84.5271 143.108 84.3181 142.179 84.083C141.714 83.966 141.271 83.8418 140.923 83.7254C140.749 83.6671 140.599 83.6112 140.486 83.5612C140.373 83.5125 140.293 83.4631 140.282 83.4509H140.282C140.272 83.4448 140.234 83.391 140.21 83.2868C140.185 83.1842 140.172 83.0406 140.172 82.8804C140.172 82.5072 140.24 82.0437 140.308 81.6794C140.343 81.4975 140.377 81.3395 140.403 81.2275C140.429 81.1155 140.445 81.0517 140.445 81.0517L140.177 80.9824L140.405 81.1393L140.177 80.9824" fill="black"/>
<path d="M139.119 84.8638C139.119 84.8638 138.541 87.1022 139.042 87.5408C139.542 87.9794 143.403 88.8056 143.917 88.7978C144.43 88.7906 145.511 87.7282 145.178 86.8699C144.846 86.0121 141.708 84.8938 140.755 84.6653C139.801 84.4369 139.375 84.4918 139.119 84.8638" fill="white"/>
<path d="M139.123 84.8638L138.854 84.7944C138.853 84.8055 138.566 85.8967 138.564 86.7617C138.564 86.9508 138.577 87.1304 138.617 87.2968C138.657 87.4614 138.721 87.6228 138.862 87.7492C138.973 87.8435 139.102 87.9045 139.268 87.9754C139.842 88.2144 140.858 88.4817 141.808 88.6979C142.282 88.8055 142.737 88.8986 143.106 88.9657C143.479 89.0323 143.747 89.0733 143.913 89.075H143.921H143.925C144.117 89.0694 144.288 88.9957 144.461 88.8925C144.716 88.7356 144.97 88.4977 145.171 88.21C145.37 87.9216 145.52 87.5807 145.521 87.2103C145.521 87.0645 145.496 86.9142 145.44 86.7695C145.374 86.6037 145.262 86.4673 145.126 86.337C144.648 85.8895 143.802 85.477 142.951 85.1232C142.102 84.7739 141.264 84.5022 140.823 84.3958C140.436 84.3032 140.125 84.2522 139.855 84.2522C139.648 84.2522 139.461 84.2832 139.295 84.3608C139.129 84.4374 138.994 84.561 138.894 84.7063L138.854 84.7944L139.123 84.8638L139.351 85.0207C139.407 84.9408 139.458 84.897 139.53 84.8632C139.601 84.8299 139.702 84.8066 139.855 84.8066C140.052 84.8061 140.329 84.8471 140.694 84.9347C141.143 85.0423 142.165 85.3777 143.091 85.7853C143.555 85.9893 143.998 86.2122 144.334 86.4285C144.502 86.5366 144.643 86.643 144.745 86.7395C144.847 86.8349 144.906 86.9214 144.923 86.9702C144.953 87.0473 144.967 87.126 144.967 87.2103C144.971 87.4914 144.792 87.8407 144.546 88.1046C144.425 88.2366 144.29 88.3469 144.171 88.4196C144.054 88.4933 143.947 88.5227 143.916 88.5205L143.921 88.7977L143.92 88.5205H143.913C143.877 88.5216 143.76 88.5105 143.61 88.4878C143.075 88.4085 142.054 88.1994 141.125 87.9643C140.66 87.8474 140.217 87.7232 139.869 87.6067C139.695 87.5485 139.545 87.4925 139.431 87.4426C139.319 87.3938 139.239 87.3445 139.228 87.3323C139.218 87.3262 139.18 87.2724 139.156 87.1681C139.131 87.0656 139.118 86.9225 139.118 86.7617C139.118 86.3891 139.185 85.925 139.254 85.5613C139.289 85.3789 139.323 85.2208 139.349 85.1088C139.375 84.9968 139.391 84.9331 139.391 84.9331L139.123 84.8638L139.351 85.0207L139.123 84.8638Z" fill="black"/>
<path d="M139.615 88.6043C139.615 88.6043 139.037 90.8422 139.538 91.2807C140.039 91.7199 143.899 92.5455 144.413 92.5383C144.927 92.5311 146.007 91.4682 145.675 90.6104C145.342 89.7521 142.204 88.6343 141.251 88.4058C140.298 88.1774 139.872 88.2317 139.615 88.6043" fill="white"/>
<path d="M139.614 88.6042L139.346 88.5349C139.345 88.546 139.058 89.6367 139.056 90.5016C139.056 90.6907 139.069 90.8703 139.109 91.0367C139.149 91.2014 139.213 91.3627 139.354 91.4891C139.465 91.5834 139.594 91.6444 139.76 91.7159C140.335 91.9549 141.35 92.2222 142.301 92.4384C142.775 92.546 143.23 92.6391 143.599 92.7062C143.972 92.7727 144.239 92.8138 144.405 92.8154H144.413H144.417C144.61 92.8104 144.78 92.7361 144.952 92.633C145.208 92.4755 145.462 92.2382 145.663 91.9499C145.862 91.6621 146.012 91.3206 146.013 90.9508C146.013 90.8044 145.988 90.6547 145.932 90.5099C145.867 90.3442 145.755 90.2078 145.618 90.0775C145.14 89.63 144.294 89.2169 143.443 88.8637C142.593 88.5144 141.756 88.2427 141.315 88.1363C140.928 88.0437 140.617 87.9927 140.346 87.9927C140.139 87.9921 139.953 88.0237 139.787 88.1008C139.62 88.1778 139.485 88.3015 139.386 88.4468L139.346 88.5349L139.614 88.6042L139.843 88.7612C139.899 88.6808 139.95 88.6375 140.021 88.6037C140.093 88.5699 140.194 88.5471 140.346 88.5471C140.544 88.5466 140.821 88.5876 141.186 88.6758C141.635 88.7828 142.657 89.1182 143.583 89.5258C144.047 89.7292 144.49 89.9521 144.826 90.1689C144.994 90.2771 145.136 90.3835 145.237 90.48C145.339 90.5754 145.398 90.6619 145.415 90.7101C145.445 90.7877 145.459 90.8665 145.459 90.9508C145.463 91.2313 145.284 91.5812 145.038 91.8451C144.917 91.9771 144.783 92.0874 144.663 92.16C144.545 92.2343 144.439 92.2632 144.408 92.261L144.412 92.5382L144.411 92.261H144.405C144.369 92.2621 144.253 92.251 144.103 92.2282C143.568 92.149 142.547 91.9399 141.618 91.7048C141.153 91.5878 140.709 91.4631 140.361 91.3472C140.187 91.289 140.037 91.233 139.924 91.1825C139.811 91.1343 139.731 91.0844 139.72 91.0722C139.71 91.0655 139.671 91.0123 139.648 90.9081C139.623 90.8055 139.61 90.6624 139.61 90.5016C139.61 90.129 139.677 89.6649 139.746 89.3012C139.781 89.1188 139.815 88.9608 139.841 88.8493C139.867 88.7373 139.883 88.6735 139.883 88.6735L139.614 88.6042L139.843 88.7612L139.614 88.6042" fill="black"/>
<path fill-rule="evenodd" clip-rule="evenodd" d="M420.677 133.8H402.477V160H369.877V133.8H296.277V104.091L360.549 10H402.477V103.4H420.677V133.8ZM361.077 11H401.477V104.4H419.677V132.8H401.477V159H370.877V132.8H297.277V104.4L361.077 11ZM331.677 104.4H370.877V46.8L331.677 104.4ZM333.568 103.4H369.877V50.0468L333.568 103.4Z" fill="black"/>
</svg>
